<?xml version="1.0" standalone="no"?>
<!DOCTYPE svg PUBLIC "-//W3C//DTD SVG 20010904//EN"
 "http://www.w3.org/TR/2001/REC-SVG-20010904/DTD/svg10.dtd">
<svg version="1.0" xmlns="http://www.w3.org/2000/svg"
 width="1200.000000pt" height="1200.000000pt" viewBox="0 0 1200.000000 1200.000000"
 preserveAspectRatio="xMidYMid meet">
<metadata>
Created by potrace 1.14, written by Peter Selinger 2001-2017
</metadata>
<g transform="translate(0.000000,1200.000000) scale(0.100000,-0.100000)"
fill="#000000" stroke="none">
<path d="M5708 11815 c-2 -1 -59 -5 -128 -9 -69 -3 -143 -8 -165 -10 -22 -3
-87 -10 -145 -16 -118 -13 -154 -17 -260 -35 -42 -7 -137 -24 -166 -29 -12 -2
-38 -7 -59 -10 -20 -4 -40 -8 -44 -10 -3 -2 -22 -7 -41 -10 -19 -3 -90 -19
-157 -36 -508 -126 -1015 -328 -1459 -583 -161 -93 -206 -119 -219 -129 -5 -5
-66 -46 -136 -92 -69 -45 -160 -109 -203 -142 -43 -32 -88 -66 -100 -74 -54
-37 -256 -206 -370 -310 -133 -121 -355 -349 -491 -505 -60 -69 -185 -227
-257 -325 -43 -58 -81 -109 -86 -115 -14 -18 -175 -263 -207 -317 -71 -118
-244 -435 -250 -458 -1 -3 -22 -48 -47 -100 -25 -52 -62 -135 -82 -185 -21
-49 -42 -99 -47 -110 -20 -45 -119 -319 -119 -332 0 -7 -4 -21 -9 -31 -21 -38
-136 -465 -155 -573 -2 -14 -13 -73 -25 -130 -11 -57 -22 -120 -25 -139 -3
-19 -10 -69 -16 -110 -16 -109 -18 -128 -25 -200 -4 -36 -8 -76 -11 -90 -24
-152 -24 -799 1 -1047 11 -115 26 -232 60 -458 12 -83 82 -397 115 -520 236
-868 671 -1666 1281 -2345 141 -158 365 -376 524 -511 22 -19 42 -36 45 -39
15 -16 178 -145 260 -206 206 -153 421 -293 642 -416 145 -81 462 -238 480
-238 8 0 18 -4 23 -9 22 -21 371 -152 575 -216 201 -63 595 -160 690 -170 14
-1 34 -5 45 -8 11 -3 40 -8 65 -11 25 -3 54 -8 65 -10 11 -2 49 -7 85 -11 36
-4 67 -8 70 -10 3 -2 41 -6 85 -10 44 -3 94 -8 110 -10 189 -25 766 -24 1005
0 127 13 247 26 267 30 12 2 57 9 100 15 43 7 87 14 98 16 11 2 40 7 65 10 25
3 48 8 51 10 3 2 21 6 40 9 123 20 464 108 639 165 299 98 685 260 900 379 52
28 69 37 105 56 44 23 284 165 300 177 6 5 59 41 120 80 60 40 117 78 125 84
8 7 62 48 120 90 89 66 208 160 285 226 11 9 31 26 45 38 249 213 565 548 786
835 417 540 754 1195 944 1835 30 100 79 278 85 308 2 9 11 49 20 87 9 39 19
81 21 95 3 14 13 70 24 125 10 55 21 118 25 140 3 22 7 51 10 65 2 14 6 48 10
75 3 28 8 64 10 80 8 57 25 240 31 345 14 215 7 731 -11 842 -2 13 -6 57 -10
98 -8 85 -11 114 -21 185 -4 27 -8 57 -9 65 -4 33 -18 111 -41 235 -174 918
-569 1775 -1158 2510 -44 55 -82 102 -85 105 -3 3 -31 34 -61 70 -164 195
-431 457 -670 656 -187 157 -534 404 -685 490 -21 12 -161 93 -205 119 -56 33
-322 166 -420 210 -254 113 -519 209 -780 284 -137 39 -403 103 -480 115 -19
3 -46 8 -60 11 -33 7 -272 43 -330 50 -81 9 -124 14 -190 20 -36 3 -92 8 -125
11 -63 6 -601 14 -607 9z"/>
</g>
</svg>
