<svg xmlns="http://www.w3.org/2000/svg" viewBox="0 0 27.4 35.38"><defs><style>.cls-1{fill-rule:evenodd;}</style></defs><g id="Layer_2" data-name="Layer 2"><g id="Layer_1-2" data-name="Layer 1"><path class="cls-1" d="M11.46,23.08c0,.1-.06.19-.08.27-1.3,5.09-1.45,6.23-2.78,8.59a27.63,27.63,0,0,1-2.15,3.21c-.09.11-.17.26-.35.23s-.21-.22-.24-.38a28,28,0,0,1-.28-4.66c.07-2,.32-2.73,2.95-13.76a.89.89,0,0,0-.06-.46A7.75,7.75,0,0,1,8.26,11c1.19-3.76,5.45-4.05,6.2-.94.46,1.92-.76,4.43-1.69,8.14-.77,3.07,2.84,5.24,5.92,3,2.84-2.06,3.95-7,3.74-10.51-.42-7-8.08-8.5-12.94-6.25C3.92,7,2.65,13.89,5.17,17.05c.32.4.56.65.46,1.05-.16.64-.31,1.27-.48,1.9a.68.68,0,0,1-1,.45A5.72,5.72,0,0,1,1.83,18.7C-.31,16.06-.92,10.83,1.9,6.4,5,1.49,10.86-.5,16.17.1c6.35.73,10.36,5.06,11.11,10,.34,2.25.1,7.77-3.05,11.68-3.62,4.49-9.49,4.79-12.19,2A8.48,8.48,0,0,1,11.46,23.08Z"/></g></g></svg>