<svg id="Layer_1" data-name="Layer 1" xmlns="http://www.w3.org/2000/svg" viewBox="0 0 1374.11 1279.41"><defs><style>.cls-1{fill:none;stroke:#231f20;stroke-miterlimit:10;}</style></defs><circle class="cls-1" cx="679.8" cy="632.45" r="571.15"/><path class="cls-1" d="M278.84,887.48S342.48,919,381.89,916s70.58-31.16,83-46.55S490,834.54,488.61,801s-11.83-62.79-65.05-161.34-72.64-145.84-74.33-238.76,66.63-196.81,337.83-194.28S998,322.39,1006.39,371.38s-8.82,148.29-25.71,181.23S883.91,733.74,880.54,754.86s-22.53,58.57.56,95.73,57.16,60,92.07,65.62S1079.6,888,1079.6,888s-28.72,59.88-100.8,97.42-168.37,5.07-205-30.41-74.34-85-62.51-153.73,106.43-245,114.31-379S729.9,280.43,679.22,280.43s-146.41,7.89-145.28,136.28S644.31,763.59,647.69,799.63s2.69,139.14-104.89,185C437.64,1029.38,341.35,992.22,278.84,887.48Z"/></svg>